<?xml version="1.0" encoding="UTF-8"?>
<svg width="40px" height="40px" viewBox="0 0 40 40" version="1.1" xmlns="http://www.w3.org/2000/svg" xmlns:xlink="http://www.w3.org/1999/xlink">
    <!-- Generator: Sketch 50 (54983) - http://www.bohemiancoding.com/sketch -->
    <title>actionIco/email</title>
    <desc>Created with Sketch.</desc>
    <defs>
        <rect id="path-1" x="0" y="0" width="40" height="40" rx="3"></rect>
    </defs>
    <g id="Gifting" stroke="none" stroke-width="1" fill="none" fill-rule="evenodd">
        <g id="Video-Flow-Copy" transform="translate(-45.000000, -40.000000)">
            <g id="Group-2" transform="translate(25.000000, 32.000000)">
                <g id="Action-Editor">
                    <g id="Group-11">
                        <g id="actionIco/gift" transform="translate(20.000000, 8.000000)">
                            <mask id="mask-2" fill="white">
                                <use xlink:href="#path-1"></use>
                            </mask>
                            <g id="Rectangle-3"></g>
                            <g id="🎨/pink" mask="url(#mask-2)" fill="#E975A4" fill-rule="evenodd">
                                <rect id="Rectangle-4" x="0" y="0" width="40" height="40"></rect>
                            </g>
                            <g id="gift-2" stroke-width="1" fill-rule="evenodd" mask="url(#mask-2)">
                                <g transform="translate(9.333333, 9.333333)" fill-rule="nonzero">
                                    <path d="M14.3768116,0 C12.3673043,0 11.2282899,1.66724638 10.6666667,2.86608696 C10.1050435,1.66724638 8.96602899,0 6.95652174,0 C5.67791304,0 4.63768116,1.04023188 4.63768116,2.31884058 C4.63768116,3.59744928 5.67791304,4.63768116 6.95652174,4.63768116 L10.6666667,4.63768116 L14.3768116,4.63768116 C15.6554203,4.63768116 16.6956522,3.59744928 16.6956522,2.31884058 C16.6956522,1.04023188 15.6554203,0 14.3768116,0 Z M6.95652174,3.71014493 C6.18944928,3.71014493 5.56521739,3.08591304 5.56521739,2.31884058 C5.56521739,1.55176812 6.18944928,0.927536232 6.95652174,0.927536232 C8.69333333,0.927536232 9.63988406,2.74736232 10.0187826,3.71014493 L6.95652174,3.71014493 Z M14.3768116,3.71014493 L11.3131594,3.71014493 C11.6897391,2.74782609 12.6330435,0.927536232 14.3768116,0.927536232 C15.1438841,0.927536232 15.7681159,1.55176812 15.7681159,2.31884058 C15.7681159,3.08591304 15.1438841,3.71014493 14.3768116,3.71014493 Z" id="Shape" fill="#D1B43D"></path>
                                    <path d="M19.4782609,6.49275362 L1.85507246,6.49275362 L1.85507246,20.4057971 C1.85507246,20.9182609 2.27014493,21.3333333 2.7826087,21.3333333 L18.5507246,21.3333333 C19.0631884,21.3333333 19.4782609,20.9182609 19.4782609,20.4057971 L19.4782609,6.49275362 Z" id="Shape" fill="#3AABD5"></path>
                                    <path d="M20.4057971,3.71014493 L0.927536232,3.71014493 C0.415072464,3.71014493 0,4.12521739 0,4.63768116 L0,7.42028986 C0,7.93275362 0.415072464,8.34782609 0.927536232,8.34782609 L20.4057971,8.34782609 C20.9182609,8.34782609 21.3333333,7.93275362 21.3333333,7.42028986 L21.3333333,4.63768116 C21.3333333,4.12521739 20.9182609,3.71014493 20.4057971,3.71014493 Z" id="Shape" fill="#3681A8"></path>
                                    <rect id="Rectangle-path" fill="#EFD358" x="8.34782609" y="3.71014493" width="4.63768116" height="4.63768116"></rect>
                                    <rect id="Rectangle-path" fill="#D1B43D" x="8.34782609" y="8.34782609" width="4.63768116" height="12.9855072"></rect>
                                </g>
                            </g>
                        </g>
                    </g>
                </g>
            </g>
        </g>
    </g>
</svg>