<?xml version="1.0" encoding="UTF-8"?>
<svg width="40px" height="40px" viewBox="0 0 40 40" version="1.1" xmlns="http://www.w3.org/2000/svg" xmlns:xlink="http://www.w3.org/1999/xlink">
    <!-- Generator: Sketch 50 (54983) - http://www.bohemiancoding.com/sketch -->
    <title>actionIco/email</title>
    <desc>Created with Sketch.</desc>
    <defs>
        <rect id="path-1" x="0" y="0" width="40" height="40" rx="3"></rect>
    </defs>
    <g id="Handwritten-Note" stroke="none" stroke-width="1" fill="none" fill-rule="evenodd">
        <g id="Video-Flow-Copy-6" transform="translate(-45.000000, -35.000000)">
            <g id="Group-2" transform="translate(25.000000, 27.000000)">
                <g id="actionIco/postcard-Copy" transform="translate(20.000000, 8.000000)">
                    <mask id="mask-2" fill="white">
                        <use xlink:href="#path-1"></use>
                    </mask>
                    <g id="Rectangle-3"></g>
                    <g id="🎨/blue/royal" mask="url(#mask-2)" fill="#5A68E9" fill-rule="evenodd">
                        <rect id="Rectangle-4" x="0" y="0" width="40" height="40"></rect>
                    </g>
                    <g id="sign" stroke-width="1" fill-rule="evenodd" mask="url(#mask-2)">
                        <g transform="translate(10.666667, 9.333333)" fill-rule="nonzero" id="Shape">
                            <path d="M0.484848485,17.4545455 C0.360795152,17.4545455 0.236741818,17.4071952 0.142046061,17.3124994 C-0.0473454545,17.1231079 -0.0473454545,16.8162861 0.142046061,16.6268945 L1.11174303,15.6571976 C1.30113455,15.4678061 1.60795636,15.4678061 1.79734788,15.6571976 C1.98673939,15.8465891 1.98673939,16.1534109 1.79734788,16.3428024 L0.827650909,17.3124994 C0.732955152,17.4071952 0.608901818,17.4545455 0.484848485,17.4545455 Z" fill="#B3B3B3"></path>
                            <path d="M17.9393939,21.3333333 L0.484848485,21.3333333 C0.217090909,21.3333333 0,21.1162424 0,20.8484848 C0,20.5807273 0.217090909,20.3636364 0.484848485,20.3636364 L17.9393939,20.3636364 C18.2071515,20.3636364 18.4242424,20.5807273 18.4242424,20.8484848 C18.4242424,21.1162424 18.2071515,21.3333333 17.9393939,21.3333333 Z" fill="#B3B3B3"></path>
                            <path d="M2.42424242,16.8856533 C1.94886303,16.8856533 1.47348364,16.7047806 1.11174303,16.3428024 C0.388019394,15.6190788 0.388019394,14.4415224 1.11174303,13.7178036 L6.92992485,7.89962182 C7.11931636,7.7102303 7.42613818,7.7102303 7.6155297,7.89962182 L9.55492364,9.83901576 C9.74431515,10.0284073 9.74431515,10.3352291 9.55492364,10.5246206 L3.73674182,16.3428024 C3.37500121,16.7047806 2.89962182,16.8856533 2.42424242,16.8856533 Z" fill="#444444"></path>
                            <path d="M13.5757576,11.1515152 C13.4517042,11.1515152 13.3276509,11.1041648 13.2329552,11.0094691 C13.0435636,10.8200776 13.0435636,10.5132558 13.2329552,10.3238642 L16.7689406,6.78787879 L15.6571976,5.67613576 C15.4678061,5.48674424 15.4678061,5.17992242 15.6571976,4.99053091 C15.8465891,4.80113939 16.1534109,4.80113939 16.3428024,4.99053091 L17.7973479,6.44507636 C17.9867394,6.63446788 17.9867394,6.9412897 17.7973479,7.13068121 L13.91856,11.0094691 C13.8238642,11.1041648 13.6998109,11.1515152 13.5757576,11.1515152 Z" fill="#EFD358"></path>
                            <path d="M16.3428024,1.11174303 C15.0842812,-0.146778182 13.0369309,-0.146778182 11.7784097,1.11174303 L5.96022788,6.92992485 C5.77083636,7.11931636 5.77083636,7.42613818 5.96022788,7.6155297 L9.83901576,11.4943176 C9.93371152,11.5890133 10.0577648,11.6363636 10.1818182,11.6363636 C10.3058715,11.6363636 10.4299248,11.5890133 10.5246206,11.4943176 L16.3428024,5.67613576 C17.6013236,4.41785212 17.6013236,2.37002667 16.3428024,1.11174303 Z" fill="#636363"></path>
                        </g>
                    </g>
                </g>
            </g>
        </g>
    </g>
</svg>