<svg xmlns="http://www.w3.org/2000/svg" xmlns:xlink="http://www.w3.org/1999/xlink" width="50" height="50" viewBox="0 0 50 50">
    <defs>
        <rect id="a" width="50" height="50" rx="3"/>
    </defs>
    <g fill="none" fill-rule="evenodd">
        <mask id="b" fill="#fff">
            <use xlink:href="#a"/>
        </mask>
        <g fill="#0077B5" mask="url(#b)">
            <path d="M0 0h50v50H0z"/>
        </g>
        <path fill="#FFF" fill-rule="nonzero" d="M37.222 11.667H12.778c-.667 0-1.111.444-1.111 1.11v24.445c0 .667.444 1.111 1.11 1.111h24.445c.667 0 1.111-.444 1.111-1.11V12.777c0-.667-.444-1.111-1.11-1.111zM19.556 34.444h-3.89V21.667h4v12.777h-.11zm-2-14.555c-1.223 0-2.334-1-2.334-2.333 0-1.223 1-2.334 2.334-2.334 1.222 0 2.333 1 2.333 2.334 0 1.333-1 2.333-2.333 2.333zm16.888 14.555h-4v-6.222c0-1.444 0-3.333-2-3.333-2.11 0-2.333 1.555-2.333 3.222v6.333h-4V21.667h3.778v1.777c.555-1 1.778-2 3.778-2 4 0 4.777 2.667 4.777 6.112v6.888z"/>
    </g>
</svg>
