<svg xmlns="http://www.w3.org/2000/svg" xmlns:xlink="http://www.w3.org/1999/xlink" width="30" height="30" viewBox="0 0 30 30">
    <defs>
        <rect id="a" width="30" height="30" rx="3"/>
    </defs>
    <g fill="none" fill-rule="evenodd">
        <mask id="b" fill="#fff">
            <use xlink:href="#a"/>
        </mask>
        <g fill="#5A68E9" mask="url(#b)">
            <path d="M0 0h30v30H0z"/>
        </g>
        <g fill-rule="nonzero" mask="url(#b)">
            <path fill="#D0CEC2" d="M24.565 21.884H5.435A.434.434 0 0 1 5 21.45V8.434c0-.24.195-.434.435-.434h19.13c.24 0 .435.194.435.434V21.45c0 .24-.195.434-.435.434z"/>
            <path fill="#E1DFD1" d="M5.661 8.661H24.34v12.562H5.66z"/>
            <path fill="#9C9996" d="M14.515 19.685V10.2c0-.119.097-.216.217-.216s.217.097.217.216v9.486c0 .12-.097.216-.217.216a.216.216 0 0 1-.217-.216zm-2.166-9.27a.216.216 0 0 0-.217-.216H7.365a.216.216 0 0 0-.216.216c0 .119.097.215.216.215h4.767c.12 0 .217-.096.217-.215zm10.833 8.623a.216.216 0 0 0-.217-.215H18.2a.216.216 0 0 0-.217.215c0 .12.097.216.217.216h4.766c.12 0 .217-.097.217-.216zm0-1.293a.216.216 0 0 0-.217-.216H18.2a.216.216 0 0 0-.217.216c0 .119.097.215.217.215h4.766c.12 0 .217-.096.217-.215zm-10.833-5.606a.216.216 0 0 0-.217-.215H7.365a.216.216 0 0 0-.216.215c0 .12.097.216.216.216h4.767c.12 0 .217-.097.217-.216zm-2.6 1.725a.216.216 0 0 0-.217-.215H7.365a.216.216 0 0 0-.216.215c0 .12.097.216.216.216h2.167c.12 0 .217-.097.217-.216z"/>
            <path fill="#FFFDF3" d="M22.906 11.396v.436h.22a.22.22 0 0 1 .221.218.22.22 0 0 1-.22.217h-.22v.436h.22a.22.22 0 0 1 .22.218.22.22 0 0 1-.22.218h-.22v.436h.22a.22.22 0 0 1 .22.218.22.22 0 0 1-.22.218h-.22v.217a.22.22 0 0 1-.221.218.22.22 0 0 1-.22-.218v-.217h-.441v.217a.22.22 0 0 1-.22.218.22.22 0 0 1-.221-.218v-.217h-.44v.217a.22.22 0 0 1-.221.218.22.22 0 0 1-.22-.218v-.217h-.441v.217a.22.22 0 0 1-.22.218.22.22 0 0 1-.221-.218v-.217h-.22a.22.22 0 0 1-.22-.218.22.22 0 0 1 .22-.218h.22v-.436h-.22a.22.22 0 0 1-.22-.218.22.22 0 0 1 .22-.218h.22v-.436h-.22a.22.22 0 0 1-.22-.217.22.22 0 0 1 .22-.218h.22v-.436h-.22a.22.22 0 0 1-.22-.218.22.22 0 0 1 .22-.218h.22v-.436h-.22a.22.22 0 0 1-.22-.217.22.22 0 0 1 .22-.218h.22V9.87a.22.22 0 0 1 .22-.218.22.22 0 0 1 .22.218v.218h.441V9.87a.22.22 0 0 1 .22-.218.22.22 0 0 1 .221.218v.218h.441V9.87a.22.22 0 0 1 .22-.218.22.22 0 0 1 .22.218v.218h.442V9.87a.22.22 0 0 1 .22-.218.22.22 0 0 1 .22.218v.218h.22a.22.22 0 0 1 .221.218.22.22 0 0 1-.22.217h-.22v.436h.22a.22.22 0 0 1 .22.218.22.22 0 0 1-.22.218h-.22z"/>
            <path fill="#CA7D69" d="M22.14 13.62h-1.719a.214.214 0 0 1-.214-.213v-2.55c0-.117.096-.212.214-.212h1.72c.118 0 .214.095.214.212v2.55a.214.214 0 0 1-.215.213z"/>
            <path fill="#E4AD8B" d="M20.427 10.645h.765c.21.228.337.529.337.86 0 .711-.592 1.288-1.322 1.288V10.86c0-.12.098-.215.22-.215z"/>
        </g>
    </g>
</svg>
