<svg xmlns="http://www.w3.org/2000/svg" xmlns:xlink="http://www.w3.org/1999/xlink" width="30" height="30" viewBox="0 0 30 30">
    <defs>
        <rect id="a" width="30" height="30" rx="3"/>
    </defs>
    <g fill="none" fill-rule="evenodd">
        <mask id="b" fill="#fff">
            <use xlink:href="#a"/>
        </mask>
        <g fill="#69ACE0" mask="url(#b)">
            <path d="M0 0h30v30H0z"/>
        </g>
        <g fill="#FFF" fill-rule="nonzero" mask="url(#b)">
            <path d="M23.12 9.561a6.577 6.577 0 0 1-1.9.525 3.335 3.335 0 0 0 1.455-1.843 6.595 6.595 0 0 1-2.1.808A3.293 3.293 0 0 0 18.16 8c-1.827 0-3.308 1.49-3.308 3.33 0 .26.03.515.086.758A9.368 9.368 0 0 1 8.122 8.61a3.331 3.331 0 0 0-.448 1.674c0 1.156.584 2.175 1.472 2.772a3.277 3.277 0 0 1-1.498-.417v.042a3.326 3.326 0 0 0 2.652 3.265 3.293 3.293 0 0 1-1.493.057 3.314 3.314 0 0 0 3.09 2.312A6.608 6.608 0 0 1 7 19.694a9.315 9.315 0 0 0 5.07 1.495c6.083 0 9.41-5.073 9.41-9.473 0-.145-.004-.288-.01-.431a6.747 6.747 0 0 0 1.65-1.724z"/>
        </g>
    </g>
</svg>
