<svg xmlns="http://www.w3.org/2000/svg" xmlns:xlink="http://www.w3.org/1999/xlink" width="30" height="30" viewBox="0 0 30 30">
    <defs>
        <rect id="a" width="30" height="30" rx="3"/>
    </defs>
    <g fill="none" fill-rule="evenodd">
        <mask id="b" fill="#fff">
            <use xlink:href="#a"/>
        </mask>
        <g fill="#82C786" mask="url(#b)">
            <path d="M0 0h30v30H0z"/>
        </g>
        <g fill-rule="nonzero" mask="url(#b)">
            <path fill="#999" d="M17.689 10.111a.444.444 0 0 1-.445-.444V8.333c0-.245-.199-.444-.444-.444h-5.594L9.114 9.98a.444.444 0 1 1-.628-.629l2.222-2.222a.444.444 0 0 1 .314-.13H16.8c.735 0 1.333.598 1.333 1.333v1.334a.444.444 0 0 1-.444.444zM23.712 11.491l-5.333 2.667a.445.445 0 0 0-.246.398v3.555c0 .169.095.322.246.398l5.333 2.666c.062.031.13.047.2.047v-9.778a.445.445 0 0 0-.2.047z"/>
            <path fill="#666" d="M18.133 23H5.69a.889.889 0 0 1-.889-.889V10.556c0-.491.398-.89.889-.89h12.444c.491 0 .89.399.89.89V22.11c0 .491-.399.889-.89.889z"/>
            <path fill="#E86C60" d="M7.467 13.222a.89.89 0 0 1 0-1.778.89.89 0 0 1 0 1.778z"/>
            <path fill="#999" d="M16.8 12.778h-1.778a.444.444 0 1 1 0-.89H16.8a.444.444 0 1 1 0 .89z"/>
            <path fill="#666" d="M24.8 11.444h-.889v9.778h.889a.444.444 0 0 0 .444-.444v-8.89a.444.444 0 0 0-.444-.444z"/>
            <path fill="#444" d="M16.8 15H7.022a.444.444 0 0 0-.444.444v5.778c0 .246.199.445.444.445H16.8a.444.444 0 0 0 .444-.445v-5.778A.444.444 0 0 0 16.8 15z"/>
        </g>
    </g>
</svg>
