<svg xmlns="http://www.w3.org/2000/svg" xmlns:xlink="http://www.w3.org/1999/xlink" width="40" height="40" viewBox="0 0 40 40">
    <defs>
        <rect id="a" width="40" height="40" rx="3"/>
        <linearGradient id="c" x1="-19.216%" x2="126.89%" y1="-17.21%" y2="123.783%">
            <stop offset="0%" stop-color="#EB7E7C"/>
            <stop offset="100%" stop-color="#E57373"/>
        </linearGradient>
    </defs>
    <g fill="none" fill-rule="evenodd">
        <mask id="b" fill="#fff">
            <use xlink:href="#a"/>
        </mask>
        <g fill="url(#c)" mask="url(#b)">
            <path d="M0 0h40v40H0z"/>
        </g>
        <g fill-rule="nonzero" mask="url(#b)">
            <path fill="#B3B3B3" d="M32.04 29.333H7.881a.549.549 0 0 1-.549-.549V11.216c0-.304.246-.55.55-.55h24.156c.303 0 .55.246.55.55v17.568a.549.549 0 0 1-.55.55z"/>
            <path fill="#D6D6D6" d="M19.96 17.255a.55.55 0 0 1 .37.143l12.079 10.98a.55.55 0 0 1-.37.955H7.882a.549.549 0 0 1-.37-.955l12.08-10.98a.55.55 0 0 1 .369-.143z"/>
            <path fill="#E6E6E6" d="M19.96 22.745a.55.55 0 0 1-.369-.143L7.513 11.622a.55.55 0 0 1 .37-.955h24.156a.549.549 0 0 1 .37.955L20.33 22.602a.55.55 0 0 1-.37.143z"/>
        </g>
    </g>
</svg>
