<svg xmlns="http://www.w3.org/2000/svg" xmlns:xlink="http://www.w3.org/1999/xlink" width="28" height="28" viewBox="0 0 28 28">
    <defs>
        <rect id="a" width="50" height="50" rx="3"/>
    </defs>
    <g fill="none" fill-rule="evenodd" transform="translate(-11 -11)">
        <mask id="b" fill="#fff">
            <use xlink:href="#a"/>
        </mask>
        <g fill-rule="nonzero" mask="url(#b)">
            <path fill="#D1B43D" d="M29.638 11.667c-2.512 0-3.936 2.084-4.638 3.582-.702-1.498-2.126-3.582-4.638-3.582a2.902 2.902 0 0 0-2.898 2.898c0 1.598 1.3 2.899 2.898 2.899h9.276c1.598 0 2.898-1.3 2.898-2.899 0-1.598-1.3-2.898-2.898-2.898zm-9.276 4.637c-.959 0-1.739-.78-1.739-1.739 0-.959.78-1.739 1.74-1.739 2.17 0 3.354 2.275 3.827 3.478h-3.828zm9.276 0h-3.83c.47-1.203 1.65-3.478 3.83-3.478.959 0 1.739.78 1.739 1.74 0 .958-.78 1.738-1.74 1.738z"/>
            <path fill="#3AABD5" d="M36.014 19.783H13.986v17.39c0 .641.518 1.16 1.159 1.16h19.71c.64 0 1.16-.519 1.16-1.16v-17.39z"/>
            <path fill="#3681A8" d="M37.174 16.304H12.826c-.64 0-1.16.52-1.16 1.16v3.478c0 .64.52 1.16 1.16 1.16h24.348c.64 0 1.16-.52 1.16-1.16v-3.478c0-.64-.52-1.16-1.16-1.16z"/>
            <path fill="#EFD358" d="M22.102 16.305h5.797v5.797h-5.797z"/>
            <path fill="#D1B43D" d="M22.102 22.102h5.797v16.232h-5.797z"/>
        </g>
    </g>
</svg>
