<svg xmlns="http://www.w3.org/2000/svg" xmlns:xlink="http://www.w3.org/1999/xlink" width="24" height="28" viewBox="0 0 24 28">
    <defs>
        <rect id="a" width="50" height="50" rx="3"/>
    </defs>
    <g fill="none" fill-rule="evenodd" transform="translate(-13 -11)">
        <mask id="b" fill="#fff">
            <use xlink:href="#a"/>
        </mask>
        <g fill-rule="nonzero" mask="url(#b)">
            <path fill="#B3B3B3" d="M13.94 33.485a.606.606 0 0 1-.429-1.035l1.212-1.212a.606.606 0 1 1 .857.857l-1.212 1.212a.604.604 0 0 1-.429.178zM35.758 38.333H13.939a.606.606 0 0 1 0-1.212h21.819a.606.606 0 0 1 0 1.212z"/>
            <path fill="#444" d="M16.364 32.774a2.312 2.312 0 0 1-1.641-.679 2.323 2.323 0 0 1 0-3.281l7.273-7.273a.606.606 0 0 1 .857 0l2.424 2.424a.606.606 0 0 1 0 .857l-7.273 7.273a2.312 2.312 0 0 1-1.64.679z"/>
            <path fill="#EFD358" d="M30.303 25.606a.606.606 0 0 1-.429-1.035l4.42-4.42-1.39-1.39a.606.606 0 1 1 .858-.856l1.818 1.818a.606.606 0 0 1 0 .857l-4.848 4.849a.604.604 0 0 1-.429.177z"/>
            <path fill="#636363" d="M33.762 13.056a4.039 4.039 0 0 0-5.706 0l-7.272 7.273a.606.606 0 0 0 0 .857l4.848 4.849a.604.604 0 0 0 .857 0l7.273-7.273a4.039 4.039 0 0 0 0-5.706z"/>
        </g>
    </g>
</svg>
