<svg xmlns="http://www.w3.org/2000/svg" xmlns:xlink="http://www.w3.org/1999/xlink" width="34" height="24" viewBox="0 0 34 24">
    <defs>
        <rect id="a" width="50" height="50" rx="3"/>
    </defs>
    <g fill="none" fill-rule="evenodd" transform="translate(-8 -13)">
        <mask id="b" fill="#fff">
            <use xlink:href="#a"/>
        </mask>
        <g fill-rule="nonzero" mask="url(#b)">
            <path fill="#D0CEC2" d="M40.942 36.474H9.058a.724.724 0 0 1-.725-.723V14.056c0-.399.325-.723.725-.723h31.884c.4 0 .725.324.725.723v21.695c0 .4-.325.723-.725.723z"/>
            <path fill="#E1DFD1" d="M9.435 14.435h31.13v20.937H9.435z"/>
            <path fill="#9C9996" d="M24.192 32.809v-15.81a.36.36 0 0 1 .361-.36c.2 0 .361.161.361.36v15.81a.36.36 0 0 1-.36.359.36.36 0 0 1-.362-.36zm-3.61-15.451a.36.36 0 0 0-.362-.36h-7.944a.36.36 0 0 0-.361.36c0 .198.161.36.36.36h7.945c.2 0 .361-.162.361-.36zM38.635 31.73a.36.36 0 0 0-.36-.36H30.33a.36.36 0 0 0-.361.36c0 .198.162.36.361.36h7.944c.2 0 .361-.162.361-.36zm0-2.156a.36.36 0 0 0-.36-.36H30.33a.36.36 0 0 0-.361.36c0 .198.162.36.361.36h7.944c.2 0 .361-.162.361-.36zm-18.055-9.343a.36.36 0 0 0-.361-.359h-7.944a.36.36 0 0 0-.361.36c0 .198.161.359.36.359h7.945c.2 0 .361-.161.361-.36zm-4.333 2.875a.36.36 0 0 0-.361-.36h-3.611a.36.36 0 0 0-.361.36c0 .198.161.36.36.36h3.612c.2 0 .36-.162.36-.36z"/>
            <path fill="#FFFDF3" d="M38.177 18.993v.727h.368c.202 0 .367.162.367.363 0 .2-.165.363-.367.363h-.368v.726h.368c.202 0 .367.163.367.363 0 .2-.165.363-.367.363h-.368v.727h.368c.202 0 .367.162.367.363 0 .2-.165.363-.367.363h-.368v.363c0 .2-.164.363-.367.363a.365.365 0 0 1-.367-.363v-.363h-.735v.363c0 .2-.164.363-.367.363a.365.365 0 0 1-.368-.363v-.363h-.734v.363c0 .2-.165.363-.368.363a.365.365 0 0 1-.367-.363v-.363h-.734v.363c0 .2-.165.363-.368.363a.365.365 0 0 1-.367-.363v-.363h-.367a.365.365 0 0 1-.368-.363c0-.2.165-.363.368-.363h.367v-.727h-.367a.365.365 0 0 1-.368-.363c0-.2.165-.363.368-.363h.367v-.726h-.367a.365.365 0 0 1-.368-.363c0-.2.165-.363.368-.363h.367v-.727h-.367a.365.365 0 0 1-.368-.363c0-.2.165-.363.368-.363h.367v-.726h-.367a.365.365 0 0 1-.368-.363c0-.201.165-.364.368-.364h.367v-.363c0-.2.164-.363.367-.363.203 0 .368.163.368.363v.363h.734v-.363c0-.2.165-.363.367-.363.203 0 .368.163.368.363v.363h.734v-.363c0-.2.165-.363.368-.363.203 0 .367.163.367.363v.363h.735v-.363c0-.2.164-.363.367-.363.203 0 .367.163.367.363v.363h.368c.202 0 .367.163.367.364 0 .2-.165.363-.367.363h-.368v.726h.368c.202 0 .367.163.367.363 0 .2-.165.363-.367.363h-.368z"/>
            <path fill="#CA7D69" d="M36.9 22.7h-2.864a.356.356 0 0 1-.358-.354v-4.25c0-.196.16-.355.358-.355H36.9c.198 0 .358.159.358.354v4.25c0 .196-.16.355-.358.355z"/>
            <path fill="#E4AD8B" d="M34.045 17.741h1.275c.349.38.562.882.562 1.433 0 1.186-.987 2.148-2.204 2.148V18.1c0-.198.164-.358.367-.358z"/>
        </g>
    </g>
</svg>
