<svg xmlns="http://www.w3.org/2000/svg" xmlns:xlink="http://www.w3.org/1999/xlink" width="30" height="30" viewBox="0 0 30 30">
    <defs>
        <rect id="a" width="30" height="30" rx="3"/>
    </defs>
    <g fill="none" fill-rule="evenodd">
        <mask id="b" fill="#fff">
            <use xlink:href="#a"/>
        </mask>
        <g fill="#75A8D2" mask="url(#b)">
            <path d="M0 0h30v30H0z"/>
        </g>
        <g fill-rule="nonzero" mask="url(#b)">
            <path fill="#FFF" d="M7.174 15.435h-1.74a.435.435 0 1 1 0-.87h1.74a.435.435 0 1 1 0 .87zM9.466 9.901a.433.433 0 0 1-.307-.127l-1.23-1.23a.435.435 0 1 1 .615-.615l1.23 1.23a.435.435 0 0 1-.308.742zM15 7.609a.435.435 0 0 1-.435-.435v-1.74a.435.435 0 1 1 .87 0v1.74c0 .24-.195.435-.435.435zM20.534 9.901a.433.433 0 0 1-.307-.742l1.23-1.23a.435.435 0 1 1 .614.615l-1.23 1.23a.433.433 0 0 1-.307.127zM24.565 15.435h-1.739a.435.435 0 1 1 0-.87h1.74a.435.435 0 1 1 0 .87z"/>
            <path fill="#EFD358" d="M17.174 22.391h-4.348v-2.179a5.656 5.656 0 0 1-3.428-5.965c.37-2.769 2.806-4.898 5.6-4.9A5.659 5.659 0 0 1 20.652 15a5.66 5.66 0 0 1-3.478 5.212v2.18z"/>
            <path fill="#E6E6E6" d="M15 25c-1.2 0-2.174-.973-2.174-2.174v-1.304h4.348v1.304C17.174 24.026 16.2 25 15 25z"/>
            <path fill="#B3B3B3" d="M12.826 21.522h4.348v1h-4.348z"/>
        </g>
    </g>
</svg>
