<svg xmlns="http://www.w3.org/2000/svg" xmlns:xlink="http://www.w3.org/1999/xlink" width="30" height="30" viewBox="0 0 30 30">
    <defs>
        <rect id="a" width="30" height="30" rx="3"/>
    </defs>
    <g fill="none" fill-rule="evenodd">
        <mask id="b" fill="#fff">
            <use xlink:href="#a"/>
        </mask>
        <g fill="#EADB45" mask="url(#b)">
            <path d="M0 0h30v30H0z"/>
        </g>
        <g fill-rule="nonzero" mask="url(#b)">
            <path fill="#BADEFC" d="M19.456 22.652c.013-.23.022-.46.022-.695 0-3.093-1.17-5.75-2.85-6.957 1.68-1.207 2.85-3.864 2.85-6.957 0-.234-.009-.466-.022-.695H9.76c-.013.23-.022.46-.022.695 0 3.093 1.17 5.75 2.85 6.957-1.68 1.207-2.85 3.864-2.85 6.957 0 .234.01.466.022.695h9.695z"/>
            <path fill="#A67C52" d="M20.87 7H8.348A.348.348 0 0 0 8 7.348v.695c0 .193.156.348.348.348H20.87a.348.348 0 0 0 .347-.348v-.695A.348.348 0 0 0 20.87 7zM20.87 21.609H8.348a.348.348 0 0 0-.348.348v.695c0 .192.156.348.348.348H20.87a.348.348 0 0 0 .347-.348v-.695a.348.348 0 0 0-.347-.348z"/>
            <path fill="#EA9860" d="M12.259 12.565c.326.546.71.995 1.141 1.305l1.209.868 1.208-.868c.43-.31.815-.759 1.141-1.305H12.26zM11.13 20.913h6.957c-.348-1.391-2.457-3.826-3.478-3.826-1.066 0-3.152 2.456-3.479 3.826z"/>
        </g>
    </g>
</svg>
